<svg width="19" height="22" viewBox="0 0 19 22" fill="none" xmlns="http://www.w3.org/2000/svg">
<path d="M18.1531 19.039C18.6833 19.6755 18.5977 20.621 17.9612 21.1512C17.6807 21.3848 17.3401 21.4991 17.0017 21.4991C16.5718 21.4991 16.1453 21.3152 15.849 20.9591L9.49999 13.3015L3.15311 20.9187C2.85648 21.2746 2.43029 21.4587 2.00045 21.4587C1.66206 21.4587 1.3217 21.3444 1.04092 21.1107C0.404354 20.5806 0.318573 19.6351 0.849011 18.9986L7.54746 10.9595L0.847886 2.96085C0.317588 2.32429 0.403276 1.37882 1.03998 0.848664C1.67561 0.317101 2.62108 0.402601 3.15217 1.04057L9.49999 8.65616L15.8469 1.03898C16.3766 0.402414 17.3225 0.316164 17.9591 0.84707C18.5956 1.37723 18.6814 2.32269 18.151 2.95926L11.4525 10.9983L18.1531 19.039Z" fill="white"/>
</svg>
