<svg width="240" height="276" viewBox="0 0 240 276" fill="none" xmlns="http://www.w3.org/2000/svg">
<g filter="url(#filter0_b_2035_103)">
<mask id="path-2-inside-1_2035_103" fill="white">
<path fill-rule="evenodd" clip-rule="evenodd" d="M0 8C0 3.58172 3.58173 0 8.00001 0H232C236.418 0 240 3.58172 240 8V178.243C240 181.426 238.113 184.306 235.195 185.577L226.253 189.472C225.445 189.824 225.343 190.72 226.074 191.038L235.195 195.012C238.113 196.283 240 199.163 240 202.346V268C240 272.418 236.418 276 232 276H8C3.58172 276 0 272.418 0 268V202.167C0 198.984 1.88692 196.103 4.80503 194.832L13.5147 191.038C14.2459 190.72 14.1433 189.824 13.3354 189.472L4.80504 185.756C1.88692 184.485 0 181.605 0 178.422V8Z"/>
</mask>
<path fill-rule="evenodd" clip-rule="evenodd" d="M0 8C0 3.58172 3.58173 0 8.00001 0H232C236.418 0 240 3.58172 240 8V178.243C240 181.426 238.113 184.306 235.195 185.577L226.253 189.472C225.445 189.824 225.343 190.72 226.074 191.038L235.195 195.012C238.113 196.283 240 199.163 240 202.346V268C240 272.418 236.418 276 232 276H8C3.58172 276 0 272.418 0 268V202.167C0 198.984 1.88692 196.103 4.80503 194.832L13.5147 191.038C14.2459 190.72 14.1433 189.824 13.3354 189.472L4.80504 185.756C1.88692 184.485 0 181.605 0 178.422V8Z" fill="url(#paint0_linear_2035_103)" fill-opacity="0.4"/>
<path d="M226.253 189.472L225.854 188.555L225.854 188.555L226.253 189.472ZM226.074 191.038L226.473 190.121L226.074 191.038ZM13.5147 191.038L13.1154 190.121H13.1154L13.5147 191.038ZM13.3354 189.472L13.7348 188.555H13.7348L13.3354 189.472ZM4.80503 194.832L4.40566 193.915L4.80503 194.832ZM235.195 185.577L235.594 186.494L235.195 185.577ZM235.195 195.012L234.796 195.928L235.195 195.012ZM4.80504 185.756L5.20441 184.839L4.80504 185.756ZM232 -1H8.00001V1H232V-1ZM241 178.243V8H239V178.243H241ZM226.652 190.389L235.594 186.494L234.796 184.66L225.854 188.555L226.652 190.389ZM226.473 190.121C226.459 190.115 226.499 190.13 226.537 190.194C226.575 190.257 226.586 190.327 226.58 190.381C226.567 190.491 226.513 190.45 226.652 190.389L225.854 188.555C225.185 188.847 224.676 189.429 224.593 190.154C224.504 190.927 224.933 191.632 225.674 191.955L226.473 190.121ZM235.594 194.095L226.473 190.121L225.674 191.955L234.796 195.928L235.594 194.095ZM241 268V202.346H239V268H241ZM8 277H232V275H8V277ZM-1 202.167V268H1V202.167H-1ZM5.2044 195.749L13.9141 191.955L13.1154 190.121L4.40566 193.915L5.2044 195.749ZM13.9141 191.955C14.6555 191.632 15.0843 190.927 14.9957 190.154C14.9128 189.429 14.4038 188.847 13.7348 188.555L12.9361 190.389C13.075 190.45 13.0212 190.491 13.0087 190.381C13.0025 190.327 13.0133 190.257 13.0514 190.194C13.0898 190.13 13.1296 190.115 13.1154 190.121L13.9141 191.955ZM13.7348 188.555L5.20441 184.839L4.40567 186.673L12.9361 190.389L13.7348 188.555ZM-1 8V178.422H1V8H-1ZM1 202.167C1 199.381 2.65105 196.861 5.2044 195.749L4.40566 193.915C1.12278 195.346 -1 198.586 -1 202.167H1ZM8 275C4.13401 275 1 271.866 1 268H-1C-1 272.971 3.02944 277 8 277V275ZM239 178.243C239 181.028 237.349 183.548 234.796 184.66L235.594 186.494C238.877 185.064 241 181.823 241 178.243H239ZM239 268C239 271.866 235.866 275 232 275V277C236.971 277 241 272.971 241 268H239ZM8.00001 -1C3.02945 -1 -1 3.02944 -1 8H1C1 4.13401 4.13401 1 8.00001 1V-1ZM234.796 195.928C237.349 197.041 239 199.561 239 202.346H241C241 198.765 238.877 195.525 235.594 194.095L234.796 195.928ZM5.20441 184.839C2.65106 183.727 1 181.207 1 178.422H-1C-1 182.003 1.12279 185.243 4.40567 186.673L5.20441 184.839ZM232 1C235.866 1 239 4.134 239 8H241C241 3.02943 236.971 -1 232 -1V1Z" fill="white" fill-opacity="0.2" mask="url(#path-2-inside-1_2035_103)"/>
</g>
<path opacity="0.6" d="M16 190H224" stroke="white" stroke-miterlimit="16" stroke-dasharray="8 8"/>
<g opacity="0.6">
<path d="M16 260V206H18.6212V260H16ZM29.1062 260V206H31.7275V260H29.1062ZM34.3487 260V206H39.5912V260H34.3487Z" fill="white"/>
<path d="M43.093 260V206H45.7143V260H43.093ZM50.9568 260V206H53.578V260H50.9568ZM58.8205 260V206H69.3055V260H58.8205Z" fill="white"/>
<path d="M70.1861 260V206H72.8073V260H70.1861ZM75.4286 260V206H80.6711V260H75.4286ZM85.9136 260V206H88.5348V260H85.9136Z" fill="white"/>
<path d="M97.2791 260V206H99.9004V260H97.2791ZM105.143 260V206H107.764V260H105.143ZM110.385 260V206H115.628V260H110.385Z" fill="white"/>
<path d="M124.372 260V206H126.993V260H124.372ZM132.236 260V206H142.721V260H132.236ZM145.342 260V206H147.963V260H145.342Z" fill="white"/>
<path d="M151.465 260V206H154.086V260H151.465ZM164.571 260V206H169.814V260H164.571ZM172.435 260V206H175.056V260H172.435Z" fill="white"/>
<path d="M178.558 260V206H189.043V260H178.558ZM191.664 260V206H194.286V260H191.664ZM199.528 260V206H202.149V260H199.528Z" fill="white"/>
<path d="M205.651 260V206H208.273V260H205.651ZM210.894 260V206H216.136V260H210.894ZM221.379 260V206H224V260H221.379Z" fill="white"/>
</g>
<defs>
<filter id="filter0_b_2035_103" x="-20" y="-20" width="280" height="316" filterUnits="userSpaceOnUse" color-interpolation-filters="sRGB">
<feFlood flood-opacity="0" result="BackgroundImageFix"/>
<feGaussianBlur in="BackgroundImageFix" stdDeviation="10"/>
<feComposite in2="SourceAlpha" operator="in" result="effect1_backgroundBlur_2035_103"/>
<feBlend mode="normal" in="SourceGraphic" in2="effect1_backgroundBlur_2035_103" result="shape"/>
</filter>
<linearGradient id="paint0_linear_2035_103" x1="240" y1="0" x2="9.47645" y2="283.7" gradientUnits="userSpaceOnUse">
<stop offset="0.30034" stop-color="#111111"/>
<stop offset="1" stop-color="#333333"/>
</linearGradient>
</defs>
</svg>
